<svg width="1782" height="313" viewBox="0 0 1782 313" fill="none" xmlns="http://www.w3.org/2000/svg">
<path d="M-308.153 102.786C-351.186 108.213 -395.053 114 -439 114V312.5H2042V43.7329C1996.57 43.7329 1950.6 44.5807 1906.27 37.2031C1866.35 30.5591 1828.21 20.0005 1788.51 12.787C1735.89 3.22642 1679.21 -2.59688 1624.51 1.14684C1572.54 4.70342 1523.6 19.5075 1476.47 33.2284C1424.55 48.3461 1374.78 67.2525 1320.68 79.1504C1270.32 90.2245 1216.81 92.8997 1163.99 89.442C1089.08 84.5383 1017.82 69.6419 945.321 57.9283C905.614 51.5127 866.246 47.7059 825.341 46.572C781.709 45.3625 738.396 42.0124 694.715 41.1778C648.151 40.2881 603.228 41.4303 557.658 48.4174C517.298 54.6057 478.411 64.2364 438.01 70.4202C412.479 74.3282 386.772 78.7864 360.278 77.9438C256.817 74.6532 155.224 57.608 51.4561 57.0766C-72.6595 56.441 -188.21 87.658 -308.153 102.786Z" fill="url(#paint0_linear_23_113)"/>
<path d="M-391 135C-347.053 135 -303.186 129.213 -260.153 123.786C-140.21 108.658 -24.6596 77.441 99.456 78.0766C203.224 78.6079 304.817 95.6532 408.278 98.9438C434.772 99.7864 460.479 95.3282 486.01 91.4202C526.411 85.2364 565.298 75.6057 605.658 69.4174C651.228 62.4303 696.151 61.2881 742.715 62.1778C786.396 63.0124 829.709 66.3625 873.341 67.572C914.246 68.7059 953.614 72.5127 993.321 78.9283C1065.82 90.6419 1137.08 105.538 1211.99 110.442C1264.81 113.9 1318.32 111.225 1368.68 100.15C1422.78 88.2525 1472.55 69.3461 1524.47 54.2284C1571.6 40.5075 1620.54 25.7034 1672.51 22.1468C1727.21 18.4031 1783.89 24.2264 1836.51 33.787C1876.21 41.0005 1914.35 51.559 1954.27 58.2031C1998.6 65.5807 2044.57 64.7329 2090 64.7329" stroke="#4DA674" stroke-width="2" stroke-linecap="round"/>
<path d="M-343 156C-299.053 156 -255.186 150.213 -212.153 144.786C-92.2095 129.658 23.3404 98.441 147.456 99.0766C251.224 99.6079 352.817 116.653 456.278 119.944C482.772 120.786 508.479 116.328 534.01 112.42C574.411 106.236 613.298 96.6057 653.658 90.4174C699.228 83.4303 744.151 82.2881 790.715 83.1778C834.396 84.0124 877.709 87.3625 921.341 88.572C962.246 89.7059 1001.61 93.5127 1041.32 99.9283C1113.82 111.642 1185.08 126.538 1259.99 131.442C1312.81 134.9 1366.32 132.225 1416.68 121.15C1470.78 109.252 1520.55 90.3461 1572.47 75.2284C1619.6 61.5075 1668.54 46.7034 1720.51 43.1468C1775.21 39.4031 1831.89 45.2264 1884.51 54.787C1924.21 62.0005 1962.35 72.559 2002.27 79.2031C2046.6 86.5807 2092.57 85.7329 2138 85.7329" stroke="#4DA674" stroke-width="2" stroke-linecap="round"/>
<path d="M-295 177C-251.053 177 -207.186 171.213 -164.153 165.786C-44.2095 150.658 71.3404 119.441 195.456 120.077C299.224 120.608 400.817 137.653 504.278 140.944C530.772 141.786 556.479 137.328 582.01 133.42C622.411 127.236 661.298 117.606 701.658 111.417C747.228 104.43 792.151 103.288 838.715 104.178C882.396 105.012 925.709 108.363 969.341 109.572C1010.25 110.706 1049.61 114.513 1089.32 120.928C1161.82 132.642 1233.08 147.538 1307.99 152.442C1360.81 155.9 1414.32 153.225 1464.68 142.15C1518.78 130.252 1568.55 111.346 1620.47 96.2284C1667.6 82.5075 1716.54 67.7034 1768.51 64.1468C1823.21 60.4031 1879.89 66.2264 1932.51 75.787C1972.21 83.0005 2010.35 93.559 2050.27 100.203C2094.6 107.581 2140.57 106.733 2186 106.733" stroke="#4DA674" stroke-width="2" stroke-linecap="round"/>
<path d="M-247 198C-203.053 198 -159.186 192.213 -116.153 186.786C3.79047 171.658 119.34 140.441 243.456 141.077C347.224 141.608 448.817 158.653 552.278 161.944C578.772 162.786 604.479 158.328 630.01 154.42C670.411 148.236 709.298 138.606 749.658 132.417C795.228 125.43 840.151 124.288 886.715 125.178C930.396 126.012 973.709 129.363 1017.34 130.572C1058.25 131.706 1097.61 135.513 1137.32 141.928C1209.82 153.642 1281.08 168.538 1355.99 173.442C1408.81 176.9 1462.32 174.225 1512.68 163.15C1566.78 151.252 1616.55 132.346 1668.47 117.228C1715.6 103.507 1764.54 88.7034 1816.51 85.1468C1871.21 81.4031 1927.89 87.2264 1980.51 96.787C2020.21 104 2058.35 114.559 2098.27 121.203C2142.6 128.581 2188.57 127.733 2234 127.733" stroke="#4DA674" stroke-width="2" stroke-linecap="round"/>
<path d="M-199 219C-155.053 219 -111.186 213.213 -68.1526 207.786C51.7905 192.658 167.34 161.441 291.456 162.077C395.224 162.608 496.817 179.653 600.278 182.944C626.772 183.786 652.479 179.328 678.01 175.42C718.411 169.236 757.298 159.606 797.658 153.417C843.228 146.43 888.151 145.288 934.715 146.178C978.396 147.012 1021.71 150.363 1065.34 151.572C1106.25 152.706 1145.61 156.513 1185.32 162.928C1257.82 174.642 1329.08 189.538 1403.99 194.442C1456.81 197.9 1510.32 195.225 1560.68 184.15C1614.78 172.252 1664.55 153.346 1716.47 138.228C1763.6 124.507 1812.54 109.703 1864.51 106.147C1919.21 102.403 1975.89 108.226 2028.51 117.787C2068.21 125 2106.35 135.559 2146.27 142.203C2190.6 149.581 2236.57 148.733 2282 148.733" stroke="#4DA674" stroke-width="2" stroke-linecap="round"/>
<path d="M-151 240C-107.053 240 -63.1862 234.213 -20.1526 228.786C99.7905 213.658 215.34 182.441 339.456 183.077C443.224 183.608 544.817 200.653 648.278 203.944C674.772 204.786 700.479 200.328 726.01 196.42C766.411 190.236 805.298 180.606 845.658 174.417C891.228 167.43 936.151 166.288 982.715 167.178C1026.4 168.012 1069.71 171.363 1113.34 172.572C1154.25 173.706 1193.61 177.513 1233.32 183.928C1305.82 195.642 1377.08 210.538 1451.99 215.442C1504.81 218.9 1558.32 216.225 1608.68 205.15C1662.78 193.252 1712.55 174.346 1764.47 159.228C1811.6 145.507 1860.54 130.703 1912.51 127.147C1967.21 123.403 2023.89 129.226 2076.51 138.787C2116.21 146 2154.35 156.559 2194.27 163.203C2238.6 170.581 2284.57 169.733 2330 169.733" stroke="#4DA674" stroke-width="2" stroke-linecap="round"/>
<path d="M-103 261C-59.0532 261 -15.1862 255.213 27.8474 249.786C147.79 234.658 263.34 203.441 387.456 204.077C491.224 204.608 592.817 221.653 696.278 224.944C722.772 225.786 748.479 221.328 774.01 217.42C814.411 211.236 853.298 201.606 893.658 195.417C939.228 188.43 984.151 187.288 1030.72 188.178C1074.4 189.012 1117.71 192.363 1161.34 193.572C1202.25 194.706 1241.61 198.513 1281.32 204.928C1353.82 216.642 1425.08 231.538 1499.99 236.442C1552.81 239.9 1606.32 237.225 1656.68 226.15C1710.78 214.252 1760.55 195.346 1812.47 180.228C1859.6 166.507 1908.54 151.703 1960.51 148.147C2015.21 144.403 2071.89 150.226 2124.51 159.787C2164.21 167 2202.35 177.559 2242.27 184.203C2286.6 191.581 2332.57 190.733 2378 190.733" stroke="#4DA674" stroke-width="2" stroke-linecap="round"/>
<path d="M-55 282C-11.0532 282 32.8138 276.213 75.8474 270.786C195.79 255.658 311.34 224.441 435.456 225.077C539.224 225.608 640.817 242.653 744.278 245.944C770.772 246.786 796.479 242.328 822.01 238.42C862.411 232.236 901.298 222.606 941.658 216.417C987.228 209.43 1032.15 208.288 1078.72 209.178C1122.4 210.012 1165.71 213.363 1209.34 214.572C1250.25 215.706 1289.61 219.513 1329.32 225.928C1401.82 237.642 1473.08 252.538 1547.99 257.442C1600.81 260.9 1654.32 258.225 1704.68 247.15C1758.78 235.252 1808.55 216.346 1860.47 201.228C1907.6 187.507 1956.54 172.703 2008.51 169.147C2063.21 165.403 2119.89 171.226 2172.51 180.787C2212.21 188 2250.35 198.559 2290.27 205.203C2334.6 212.581 2380.57 211.733 2426 211.733" stroke="#4DA674" stroke-width="2" stroke-linecap="round"/>
<defs>
<linearGradient id="paint0_linear_23_113" x1="802" y1="313" x2="789.509" y2="1.20053e-05" gradientUnits="userSpaceOnUse">
<stop stop-color="white" stop-opacity="0"/>
<stop offset="0.544" stop-color="#A2D0B6"/>
<stop offset="0.906809" stop-color="#4DA674"/>
</linearGradient>
</defs>
</svg>
